<?xml version="1.0" encoding="utf-8"?>
<!-- Generator: Adobe Illustrator 18.1.1, SVG Export Plug-In . SVG Version: 6.00 Build 0)  -->
<svg version="1.1" id="Layer_1" xmlns="http://www.w3.org/2000/svg" xmlns:xlink="http://www.w3.org/1999/xlink" x="0px" y="0px"
	 viewBox="0 0 100 100" enable-background="new 0 0 100 100" xml:space="preserve">
<circle fill="#432436" stroke="#869F98" stroke-width="6" stroke-miterlimit="10" cx="50" cy="50" r="41.1"/>
<g>
	<path fill="#E9DAD3" d="M35,56.1l-4.1,12.5h-5.3l13.5-39.8h6.2l13.6,39.8h-5.5l-4.2-12.5H35z M48.1,52.1l-3.9-11.4
		c-0.9-2.6-1.5-5-2.1-7.3H42c-0.6,2.4-1.2,4.8-2,7.2l-3.9,11.5H48.1z"/>
	<path fill="#E9DAD3" d="M70.2,32c0.1,1.8-1.2,3.2-3.3,3.2c-1.8,0-3.1-1.4-3.1-3.2c0-1.8,1.4-3.2,3.2-3.2
		C68.9,28.8,70.2,30.2,70.2,32z M64.4,68.6V40h5.2v28.6H64.4z"/>
</g>
</svg>
