<?xml version="1.0" encoding="utf-8"?>
<!-- Generator: Adobe Illustrator 18.1.1, SVG Export Plug-In . SVG Version: 6.00 Build 0)  -->
<svg version="1.1" id="Layer_1" xmlns="http://www.w3.org/2000/svg" xmlns:xlink="http://www.w3.org/1999/xlink" x="0px" y="0px"
	 viewBox="0 0 100 100" enable-background="new 0 0 100 100" xml:space="preserve">
<circle fill="#432436" stroke="#869F98" stroke-width="6" stroke-miterlimit="10" cx="50" cy="50" r="41.1"/>
<g>
	<path fill="#E9DAD3" d="M38.1,63.5c-1.4,0.7-4.4,1.7-8.2,1.7c-8.6,0-14.2-5.8-14.2-14.6c0-8.8,6-15.2,15.3-15.2
		c3.1,0,5.8,0.8,7.2,1.5l-1.2,4c-1.2-0.7-3.2-1.4-6-1.4c-6.5,0-10.1,4.8-10.1,10.8c0,6.6,4.2,10.7,9.9,10.7c3,0,4.9-0.8,6.4-1.4
		L38.1,63.5z"/>
	<path fill="#E9DAD3" d="M43.5,59.3c1.5,1,4.2,2.1,6.8,2.1c3.8,0,5.5-1.9,5.5-4.2c0-2.5-1.5-3.8-5.3-5.3C45.4,50,43,47.2,43,43.8
		c0-4.6,3.7-8.4,9.9-8.4c2.9,0,5.4,0.8,7,1.8l-1.3,3.8c-1.1-0.7-3.2-1.7-5.8-1.7c-3.1,0-4.8,1.8-4.8,3.9c0,2.4,1.7,3.4,5.4,4.8
		c5,1.9,7.5,4.4,7.5,8.6c0,5-3.9,8.6-10.7,8.6c-3.1,0-6-0.8-8-1.9L43.5,59.3z"/>
	<path fill="#E9DAD3" d="M66.8,59.3c1.5,1,4.2,2.1,6.8,2.1c3.8,0,5.5-1.9,5.5-4.2c0-2.5-1.5-3.8-5.3-5.3c-5.1-1.8-7.6-4.7-7.6-8.1
		c0-4.6,3.7-8.4,9.9-8.4c2.9,0,5.4,0.8,7,1.8l-1.3,3.8c-1.1-0.7-3.2-1.7-5.8-1.7c-3.1,0-4.8,1.8-4.8,3.9c0,2.4,1.7,3.4,5.4,4.8
		c5,1.9,7.5,4.4,7.5,8.6c0,5-3.9,8.6-10.7,8.6c-3.1,0-6-0.8-8-1.9L66.8,59.3z"/>
</g>
</svg>
