<?xml version="1.0" encoding="utf-8"?>
<!-- Generator: Adobe Illustrator 18.1.1, SVG Export Plug-In . SVG Version: 6.00 Build 0)  -->
<svg version="1.1" id="Layer_1" xmlns="http://www.w3.org/2000/svg" xmlns:xlink="http://www.w3.org/1999/xlink" x="0px" y="0px"
	 viewBox="0 0 100 100" enable-background="new 0 0 100 100" xml:space="preserve">
<circle fill="#432436" stroke="#869F98" stroke-width="6" stroke-miterlimit="10" cx="50" cy="50" r="41.1"/>
<g>
	<path fill="#E9DAD3" d="M17.8,42.4v7H26v-7h2.2v16.8H26v-7.9h-8.1v7.9h-2.2V42.4H17.8z"/>
	<path fill="#E9DAD3" d="M35.1,44.2H30v-1.8h12.5v1.8h-5.1v15h-2.2V44.2z"/>
	<path fill="#E9DAD3" d="M58.6,51.8c-0.1-2.3-0.3-5.2-0.3-7.3h-0.1c-0.6,2-1.3,4.1-2.1,6.4l-3,8.2h-1.7l-2.7-8
		c-0.8-2.4-1.5-4.5-2-6.5h0c0,2.1-0.2,4.9-0.3,7.4L46,59.2h-2.1l1.2-16.8h2.8l2.9,8.1c0.7,2.1,1.3,3.9,1.7,5.7h0.1
		c0.4-1.7,1-3.5,1.8-5.7l3-8.1h2.8l1,16.8H59L58.6,51.8z"/>
	<path fill="#E9DAD3" d="M64.5,42.4h2.2v15h7.2v1.8h-9.4V42.4z"/>
	<path fill="#E9DAD3" d="M85.2,44.8H79L78.4,49c0.4,0,0.7-0.1,1.3-0.1c1.3,0,2.5,0.3,3.5,0.9c1.3,0.7,2.3,2.1,2.3,4.2
		c0,3.2-2.5,5.5-6,5.5c-1.8,0-3.3-0.5-4-1l0.5-1.7c0.7,0.4,2,0.9,3.5,0.9c2.1,0,3.8-1.3,3.8-3.5c0-2.1-1.4-3.6-4.7-3.6
		c-0.9,0-1.6,0.1-2.2,0.2l1-7.8h7.8V44.8z"/>
</g>
</svg>
