<?xml version="1.0" encoding="utf-8"?>
<!-- Generator: Adobe Illustrator 18.1.1, SVG Export Plug-In . SVG Version: 6.00 Build 0)  -->
<svg version="1.1" id="Layer_1" xmlns="http://www.w3.org/2000/svg" xmlns:xlink="http://www.w3.org/1999/xlink" x="0px" y="0px"
	 viewBox="0 0 100 100" enable-background="new 0 0 100 100" xml:space="preserve">
<circle fill="#432436" stroke="#869F98" stroke-width="6" stroke-miterlimit="10" cx="50" cy="50" r="41.1"/>
<g>
	<path fill="#E9DAD3" d="M38.7,33.4h4.5v23.5c0,9.3-4.6,12.2-10.6,12.2c-1.7,0-3.7-0.4-4.8-0.8l0.7-3.7c0.9,0.4,2.3,0.7,3.8,0.7
		c4.1,0,6.4-1.8,6.4-8.7V33.4z"/>
	<path fill="#E9DAD3" d="M50.1,62.9c2,1.2,5,2.3,8.1,2.3c4.6,0,7.3-2.4,7.3-6c0-3.3-1.9-5.1-6.6-7c-5.7-2-9.3-5-9.3-9.9
		c0-5.5,4.5-9.5,11.3-9.5c3.6,0,6.2,0.8,7.7,1.7l-1.2,3.7c-1.1-0.6-3.5-1.7-6.7-1.7c-4.8,0-6.6,2.9-6.6,5.3c0,3.3,2.1,4.9,7,6.8
		c5.9,2.3,8.9,5.1,8.9,10.3c0,5.4-4,10.1-12.3,10.1c-3.4,0-7.1-1-8.9-2.2L50.1,62.9z"/>
</g>
</svg>
