<?xml version="1.0" encoding="utf-8"?>
<!-- Generator: Adobe Illustrator 18.1.1, SVG Export Plug-In . SVG Version: 6.00 Build 0)  -->
<svg version="1.1" id="Layer_1" xmlns="http://www.w3.org/2000/svg" xmlns:xlink="http://www.w3.org/1999/xlink" x="0px" y="0px"
	 viewBox="0 0 100 100" enable-background="new 0 0 100 100" xml:space="preserve">
<circle fill="#432436" stroke="#869F98" stroke-width="6" stroke-miterlimit="10" cx="50" cy="50" r="41.1"/>
<g>
	<path fill="#E9DAD3" d="M30.4,33.8c2.2-0.4,5-0.7,8.7-0.7c4.5,0,7.7,1,9.8,2.9c1.9,1.7,3.1,4.2,3.1,7.3c0,3.2-0.9,5.7-2.7,7.5
		c-2.4,2.5-6.3,3.8-10.7,3.8c-1.4,0-2.6-0.1-3.6-0.3v14h-4.5V33.8z M34.9,50.7c1,0.3,2.2,0.4,3.7,0.4c5.5,0,8.8-2.7,8.8-7.5
		c0-4.6-3.3-6.9-8.3-6.9c-2,0-3.5,0.2-4.3,0.4V50.7z"/>
	<path fill="#E9DAD3" d="M56.1,63.8c1.4,0.9,3.7,1.8,6,1.8c3.3,0,4.9-1.7,4.9-3.7c0-2.2-1.3-3.4-4.7-4.6c-4.5-1.6-6.7-4.1-6.7-7.1
		c0-4.1,3.3-7.4,8.7-7.4c2.5,0,4.8,0.7,6.2,1.6l-1.1,3.3c-1-0.6-2.8-1.5-5.1-1.5c-2.7,0-4.2,1.6-4.2,3.4c0,2.1,1.5,3,4.8,4.3
		c4.4,1.7,6.6,3.8,6.6,7.6c0,4.4-3.4,7.5-9.4,7.5c-2.8,0-5.3-0.7-7.1-1.7L56.1,63.8z"/>
</g>
</svg>
