<?xml version="1.0" encoding="utf-8"?>
<!-- Generator: Adobe Illustrator 18.1.1, SVG Export Plug-In . SVG Version: 6.00 Build 0)  -->
<svg version="1.1" id="Layer_1" xmlns="http://www.w3.org/2000/svg" xmlns:xlink="http://www.w3.org/1999/xlink" x="0px" y="0px"
	 viewBox="0 0 100 100" enable-background="new 0 0 100 100" xml:space="preserve">
<circle fill="#432436" stroke="#869F98" stroke-width="6" stroke-miterlimit="10" cx="50" cy="50" r="41.1"/>
<g>
	<path fill="#E9DAD3" d="M32,47.7l-4.8-18.9h2.6l2.2,9.5c0.6,2.4,1.1,4.7,1.4,6.5h0.1c0.3-1.9,0.9-4.1,1.5-6.6l2.5-9.5h2.5l2.3,9.6
		c0.5,2.2,1,4.5,1.3,6.5h0.1c0.4-2.1,0.9-4.2,1.5-6.5l2.5-9.5h2.5l-5.3,18.9h-2.5L40,37.8c-0.6-2.4-1-4.3-1.2-6.2h-0.1
		c-0.3,1.9-0.8,3.7-1.5,6.2l-2.7,9.8H32z"/>
	<path fill="#E9DAD3" d="M74.7,38c0,6.5-3.9,9.9-8.8,9.9c-5,0-8.5-3.9-8.5-9.6c0-6,3.7-9.9,8.8-9.9C71.3,28.5,74.7,32.4,74.7,38z
		 M60,38.3c0,4,2.2,7.6,6,7.6c3.9,0,6-3.6,6-7.8c0-3.8-2-7.7-6-7.7C62,30.5,60,34.2,60,38.3z"/>
	<path fill="#E9DAD3" d="M45.3,81.3l-2.4-4.2c-1-1.6-1.6-2.6-2.2-3.7h-0.1c-0.5,1.1-1.1,2.1-2,3.8l-2.3,4.1h-2.8l5.8-9.5l-5.5-9.3
		h2.8l2.5,4.4c0.7,1.2,1.2,2.2,1.7,3.2h0.1c0.5-1.1,1-2,1.7-3.2l2.6-4.4H48l-5.7,9.2l5.9,9.7H45.3z"/>
	<path fill="#E9DAD3" d="M56.9,62.6c1.2-0.2,2.7-0.4,4.7-0.4c2.4,0,4.2,0.6,5.3,1.6c1,0.9,1.7,2.3,1.7,3.9c0,1.7-0.5,3.1-1.5,4
		c-1.3,1.4-3.4,2.1-5.8,2.1c-0.7,0-1.4,0-2-0.2v7.6h-2.4V62.6z M59.3,71.7c0.5,0.1,1.2,0.2,2,0.2c2.9,0,4.7-1.4,4.7-4
		c0-2.5-1.8-3.7-4.5-3.7c-1.1,0-1.9,0.1-2.3,0.2V71.7z"/>
</g>
</svg>
